<svg width="21" height="26" viewBox="0 0 21 26" fill="none" xmlns="http://www.w3.org/2000/svg">
<path d="M18.6136 3.2207C19.5859 3.2207 20.1955 4.05252 20.1955 4.8857V23.168C20.1955 24.098 19.2245 25.1248 18.3505 25.1248H1.86C0.790909 25.1248 0 24.0148 0 23.168V4.98388C0 3.9557 0.526364 3.20706 1.67864 3.30388H2.15045C2.54045 3.33115 2.84591 3.66388 2.83227 4.05388V7.3157C2.83227 7.6907 3.09545 8.0657 3.53864 8.0657L16.6705 7.98115C17.0318 7.98115 17.3795 7.70434 17.3795 7.23115V3.9707C17.3795 3.49888 17.7259 3.2207 18.1705 3.2207H18.6136ZM10.7155 16.5189H5.35773C5.22991 16.518 5.10318 16.5425 4.9849 16.5909C4.86662 16.6394 4.75914 16.7108 4.66869 16.8012C4.57825 16.8915 4.50664 16.9989 4.45801 17.1171C4.40939 17.2353 4.38473 17.362 4.38546 17.4898C4.38546 18.0175 4.81636 18.4621 5.35773 18.4621H10.7168C10.9742 18.461 11.2208 18.3582 11.4026 18.176C11.5845 17.9939 11.687 17.7472 11.6877 17.4898C11.6885 17.362 11.6638 17.2353 11.6152 17.1171C11.5665 16.9989 11.4949 16.8915 11.4045 16.8012C11.314 16.7108 11.2066 16.6394 11.0883 16.5909C10.97 16.5425 10.8433 16.518 10.7155 16.5189ZM14.7559 12.6462H5.27455C5.14677 12.6511 5.02123 12.6812 4.90518 12.7349C4.78912 12.7886 4.68485 12.8647 4.59839 12.9589C4.51192 13.0531 4.44497 13.1635 4.4014 13.2837C4.35783 13.404 4.33851 13.5316 4.34455 13.6593C4.34945 13.7871 4.37961 13.9126 4.43329 14.0287C4.48697 14.1448 4.56311 14.249 4.65731 14.3355C4.75151 14.422 4.86191 14.4889 4.98213 14.5325C5.10234 14.576 5.23 14.5954 5.35773 14.5893H14.7559C14.8837 14.5901 15.0104 14.5654 15.1286 14.5168C15.2468 14.4682 15.3542 14.3965 15.4445 14.3061C15.5349 14.2157 15.6063 14.1082 15.6548 13.9899C15.7032 13.8716 15.7277 13.7449 15.7268 13.6171C15.7275 13.4894 15.7029 13.3628 15.6544 13.2447C15.6058 13.1265 15.5344 13.0192 15.4441 12.9289C15.3538 12.8386 15.2464 12.7671 15.1283 12.7186C15.0102 12.6701 14.8836 12.6454 14.7559 12.6462ZM12.1595 0.125244C12.9368 0.138881 13.5614 0.74979 13.575 1.52706C13.575 1.90206 13.8395 2.27706 14.2841 2.27706H14.7409C15.1445 2.2907 15.45 2.62343 15.4364 3.02706V5.2607C15.4364 5.6357 15.1718 6.0107 14.7273 6.0107H5.38636C5.29123 6.00965 5.19726 5.98968 5.10992 5.95196C5.02258 5.91425 4.94362 5.85953 4.87762 5.791C4.81163 5.72247 4.75994 5.6415 4.72554 5.5528C4.69114 5.4641 4.67474 5.36944 4.67727 5.27434V3.0407C4.67727 2.66706 4.94182 2.2907 5.38636 2.2907H5.91273C6.27409 2.2907 6.62182 2.01388 6.62182 1.54206C6.63545 0.76479 7.26 0.140244 8.03727 0.126608L12.1595 0.125244ZM10.1468 1.5407C9.35591 1.5407 8.64682 2.2907 8.64682 3.12252C8.64682 3.9557 9.35591 4.70434 10.1468 4.70434C10.9377 4.70434 11.6468 4.1507 11.6468 3.12252C11.6468 2.2907 11.0345 1.5407 10.1468 1.5407Z" fill="currentColor"/>
</svg>
