<svg width="24" height="22" viewBox="0 0 24 22" fill="none" xmlns="http://www.w3.org/2000/svg">
<g id="Group 130">
<path id="Vector" d="M1.72078 13.5516C0.209896 10.8849 0.366087 7.59327 2.06725 5.04295C2.67501 4.12847 3.51281 3.16003 4.66017 2.31087C7.93468 -0.114484 11.0558 0.200771 12.3622 0.19509C12.385 0.19509 12.4077 0.197935 12.4304 0.200775C17.4941 0.19509 21.6945 3.0294 22.9327 6.75832C23.1486 7.40868 23.2622 8.04767 23.3019 8.66395C23.3956 10.1095 23.0804 11.5494 22.4272 12.8416C22.2568 13.1796 22.058 13.5403 21.8223 13.9123C21.1577 14.9631 20.1552 16.2127 17.4941 18.1836C16.0883 19.2259 14.1344 20.5323 11.6267 21.8132C11.3796 21.9381 11.0842 21.762 11.0814 21.4837L11.0558 19.8422C11.0473 19.2487 10.6526 18.7289 10.0817 18.5614L6.00632 17.3686C5.94384 17.3515 5.8842 17.3288 5.8274 17.3032C5.04924 16.9482 3.11521 15.9287 1.78609 13.6624C1.76337 13.6255 1.74349 13.5885 1.72078 13.5516Z" fill="#21BA52"/>
<path id="Vector_2" d="M4.59192 7.00386C4.59192 7.00308 4.59256 7.00244 4.59334 7.00244H5.38713C5.48653 7.00244 5.5689 7.08765 5.5689 7.19273V11.0353C5.5689 11.1403 5.65126 11.2255 5.75066 11.2255H7.89768C7.99708 11.2255 8.07945 11.3107 8.07945 11.4158V12.0179C8.07945 12.123 7.99708 12.2082 7.89768 12.2082H4.59192C4.49252 12.2082 4.41016 12.123 4.41016 12.0179V7.19558C4.41016 7.091 4.49173 7.0061 4.59049 7.00529C4.59128 7.00528 4.59192 7.00465 4.59192 7.00386Z" fill="white"/>
<path id="Vector_3" d="M8.91126 7.00293H9.70644C9.80584 7.00293 9.8882 7.08814 9.8882 7.19322V12.0155C9.8882 12.1206 9.80584 12.2058 9.70644 12.2058H8.91126C8.81186 12.2058 8.72949 12.1206 8.72949 12.0155V7.19322C8.72949 7.08814 8.81186 7.00293 8.91126 7.00293Z" fill="white"/>
<path id="Vector_4" d="M15.3666 7.19322V12.0155C15.3666 12.1206 15.2843 12.2058 15.1849 12.2058H14.5004C14.4464 12.2058 14.3953 12.1803 14.3584 12.1377L11.916 9.04775V12.0155C11.916 12.1206 11.8336 12.2058 11.7342 12.2058H10.9532C10.8538 12.2058 10.7715 12.1206 10.7715 12.0155V7.19322C10.7715 7.08814 10.8538 7.00293 10.9532 7.00293H11.6434C11.6973 7.00293 11.7485 7.02849 11.7854 7.07109L14.2192 10.161V7.19322C14.2192 7.08814 14.3016 7.00293 14.401 7.00293H15.182C15.2814 7.00293 15.3638 7.08814 15.3638 7.19322H15.3666Z" fill="white"/>
<path id="Vector_5" d="M20.1506 11.4873C20.1515 11.4892 20.152 11.4912 20.152 11.4933V11.9531C20.152 12.0922 20.0441 12.203 19.9106 12.203H16.5168C16.3833 12.203 16.2754 12.0894 16.2754 11.9531V7.25285C16.2754 7.11369 16.3833 7.00293 16.5168 7.00293H19.8169C19.9503 7.00293 20.0583 7.11653 20.0583 7.25285V7.71577C20.0583 7.85493 19.9503 7.96569 19.8169 7.96569H17.9908C17.6786 7.96569 17.4256 8.21872 17.4256 8.53085C17.4256 8.84298 17.6786 9.09601 17.9908 9.09601H19.5073C19.6408 9.09601 19.7487 9.20961 19.7487 9.34593V9.78046C19.7487 9.91962 19.6408 10.0304 19.5073 10.0304H18.0277C17.6952 10.0304 17.4256 10.2999 17.4256 10.6325C17.4256 10.965 17.6952 11.2345 18.0277 11.2345H19.9078C20.0402 11.2345 20.1475 11.3464 20.1491 11.4813C20.1492 11.4834 20.1496 11.4854 20.1506 11.4873Z" fill="white"/>
</g>
</svg>
