<svg width="40" height="40" viewBox="0 0 40 40" fill="none" xmlns="http://www.w3.org/2000/svg">
<g id="Social/Skype">
<rect width="40" height="40" rx="20" fill="#0078D7" fill-opacity="0.2"/>
<path id="Shape" d="M20.0519 27.7325C15.7838 27.7325 13.8338 25.5583 13.8338 23.9636C13.8332 23.5831 13.9894 23.2192 14.2655 22.9575C14.5416 22.6958 14.9133 22.5594 15.2932 22.5803C17.1205 22.5803 16.6425 25.3214 20.0519 25.3214C21.7947 25.3214 22.8184 24.2723 22.8184 23.2867C22.8184 22.6945 22.48 22.0177 21.3294 21.747L17.5224 20.7868C14.4641 20.0085 13.9311 18.308 13.9311 16.7302C13.9311 13.4561 16.9259 12.2717 19.777 12.2717C22.4038 12.2717 25.5256 13.7226 25.5256 15.6854C25.5256 16.5314 24.8192 16.984 23.9986 16.984C22.4377 16.984 22.6999 14.7928 19.5613 14.7928C18.0004 14.7928 17.1797 15.5246 17.1797 16.5483C17.1797 17.572 18.3938 17.9188 19.4597 18.1515L22.2685 18.786C25.3479 19.4797 26.1686 21.2859 26.1686 23.016C26.1686 25.6767 24.1085 27.7325 20.0477 27.7325H20.0519ZM31.8368 22.1023C31.9587 21.404 32.0196 20.6963 32.0187 19.9873C32.0336 16.4261 30.4689 13.0416 27.7462 10.746C25.0236 8.45043 21.4232 7.48015 17.9158 8.0967C16.8377 7.47599 15.615 7.15062 14.371 7.1534C11.8176 7.169 9.46395 8.5375 8.18725 10.7489C6.91054 12.9603 6.90229 15.6828 8.16555 17.9019C7.46066 21.7751 8.69542 25.7481 11.4715 28.5394C14.2477 31.3307 18.2139 32.5871 22.0908 31.9033C23.1676 32.5235 24.3888 32.8489 25.6314 32.8466C28.1835 32.8302 30.5357 31.4623 31.8121 29.2522C33.0885 27.0422 33.0979 24.3212 31.8368 22.1023Z" fill="#0078D7"/>
</g>
</svg>
