<svg viewBox="0 0 30 25" fill="none" xmlns="http://www.w3.org/2000/svg">
<g id="Group 113">
<g id="Group 111">
<path id="Subtract" fill-rule="evenodd" clip-rule="evenodd" d="M12.0306 1.58636L1.99422 6.3263C0.995432 6.798 0.568145 7.99007 1.03985 8.98885L7.36825 22.3887C7.84153 23.3908 9.03945 23.817 10.0393 23.339L13.9318 21.4782L9.45129 19.1135C9.03316 18.8928 8.70673 18.5311 8.52992 18.0926L8.25202 17.4035C8.03683 16.8698 8.06193 16.2692 8.32092 15.7554L14.2925 3.90698C14.5158 3.46399 14.5361 2.94598 14.3483 2.48685C13.9764 1.57809 12.9185 1.16705 12.0306 1.58636ZM8.62698 14.8192L11.697 8.24994L11.1741 8.07494L8.80331 7.28152L8.0099 9.65228L7.30568 11.7565C6.89699 12.9777 7.4838 14.2923 8.62698 14.8192Z" fill="currentColor"/>
</g>
<g id="Group 112">
<path id="Subtract_2" fill-rule="evenodd" clip-rule="evenodd" d="M28.0217 6.56443C29.0117 7.0544 29.417 8.25411 28.927 9.24406L22.3493 22.5338C21.8593 23.5238 20.6596 23.9291 19.6697 23.4391L9.89547 18.6014C8.90552 18.1115 8.50021 16.9117 8.99018 15.9218L15.5679 2.63201C16.0579 1.64206 17.2576 1.23675 18.2475 1.72672L28.0217 6.56443ZM23.0816 11.7755C22.6685 10.5529 21.4022 9.85958 20.1704 10.1351C19.6424 8.98858 18.3231 8.40213 17.1005 8.81519C15.7924 9.25711 15.0902 10.6758 15.5322 11.9838L16.2424 14.0861L17.0426 16.4546L19.411 15.6544L21.5133 14.9442C22.8214 14.5022 23.5235 13.0836 23.0816 11.7755Z" fill="currentColor"/>
</g>
</g>
</svg>
