<svg viewBox="0 0 32 33" fill="none" xmlns="http://www.w3.org/2000/svg">
<g id="Pescaria">
<path id="Subtract" fill-rule="evenodd" clip-rule="evenodd" d="M17.7857 23.7498C15.5524 23.8567 11.3483 25.5989 12.425 31.7013C11.6751 30.872 10.2427 28.8492 10.5184 27.4615C10.615 26.9771 10.7278 26.6136 10.818 26.3228C11.0511 25.5717 11.1336 25.3059 10.3966 24.696C10.1932 24.5277 9.83097 24.3585 9.38651 24.1509C7.59681 23.315 4.47429 21.8565 5.02613 17.3296C5.71833 11.6787 9.48642 8.74281 10.9093 8.47871C10.3935 7.28148 8.90983 4.95073 7.10582 5.2051C8.05425 4.05151 11.156 2.72399 15.9786 6.6596C17.5423 6.27514 22.3968 6.30513 29.3181 9.49519C28.9175 10.8159 26.9276 13.7317 22.1852 14.8284C21.9321 16.4033 20.7338 19.5299 17.9652 19.4496C18.3017 18.4832 18.6188 16.3133 17.1897 15.3434C15.4529 15.1362 11.4635 15.1996 9.40638 17.1323C6.83345 19.5433 8.00938 22.1615 9.83593 23.2047C11.6623 24.248 12.0019 24.3618 12.4604 23.8601C12.9184 23.3552 15.0428 22.0043 17.7857 23.7498ZM23 10.0138C23.4142 10.0138 23.75 9.67801 23.75 9.26379C23.75 8.84958 23.4142 8.51379 23 8.51379C22.5858 8.51379 22.25 8.84958 22.25 9.26379C22.25 9.67801 22.5858 10.0138 23 10.0138Z" fill="currentColor"/>
<path id="Vector" d="M21.3827 22.4753C21.7529 22.0286 21.1889 20.5606 20.4519 19.376C20.2912 19.3851 20.1768 19.5774 20.019 19.5923C20.2279 20.1238 20.5158 20.9103 20.3112 21.1546C19.4896 22.1405 15.361 20.0703 11.0933 16.5249C6.82571 12.9796 4.03356 9.30785 4.85522 8.32198C5.19377 7.91601 6.39699 7.91601 8.77594 9.42945L9.20817 8.99701C4.87507 5.72733 3.4549 6.23071 2.93746 6.61827C1.63951 7.59028 5.46096 13.1777 10.5016 17.3625C15.5407 21.5442 20.4105 23.6409 21.3827 22.4753Z" fill="currentColor"/>
</g>
</svg>
