<svg viewBox="0 0 24 24" fill="none" xmlns="http://www.w3.org/2000/svg">
<g id="Lotaria ">
<path id="Vector" d="M12 2.90625C6.97838 2.90625 2.90625 6.97838 2.90625 12C2.90625 17.0216 6.97838 21.0938 12 21.0938C17.0216 21.0938 21.0938 17.0216 21.0938 12C21.0938 6.97838 17.0257 2.90625 12 2.90625ZM10.1829 17.9138C7.17074 17.9138 4.72746 15.4705 4.72746 12.4584C4.72746 9.44622 7.17074 7.00294 10.1829 7.00294C13.195 7.00294 15.6383 9.44622 15.6383 12.4584C15.6383 15.4705 13.195 17.9138 10.1829 17.9138ZM16.4364 8.25118C15.4582 7.27305 14.9589 6.19261 15.3232 5.83246C15.6874 5.47231 16.7638 5.96751 17.7419 6.94564C18.72 7.92377 19.2193 9.00422 18.8551 9.36437C18.4909 9.72452 17.4104 9.22522 16.4364 8.25118Z" fill="currentColor"/>
<path id="Vector_2" d="M11.1772 12.0378C12.0121 11.7717 12.4459 11.2724 12.4746 10.5358C12.3927 9.50853 11.396 8.81498 10.1991 8.82916C9.18411 8.82916 7.93996 9.66815 7.809 10.9409C7.7517 11.7554 8.25509 12.5043 9.02859 12.7581C8.12004 13.11 7.6453 13.6789 7.60437 14.4647C7.68622 15.5206 8.48019 16.0731 10.0026 16.1263C11.7624 16.0772 12.6833 15.3896 12.761 14.0554C12.7856 13.1428 12.2577 12.4716 11.1772 12.0378ZM10.1991 9.23842C10.9603 9.26707 11.3491 9.6927 11.3777 10.5399C11.4023 11.0351 11.1731 11.5098 10.7679 11.8004C9.65885 11.3379 9.13091 10.8059 9.18411 10.2125C9.1923 9.66405 9.64658 9.23024 10.195 9.23842H10.1991ZM10.0804 15.807C9.21276 15.7538 8.75848 15.2504 8.71756 14.3051C8.71346 13.7812 8.99176 13.2983 9.45013 13.0445C9.5238 13.0527 9.59337 13.0814 9.65067 13.1264C9.67113 13.1509 9.69978 13.1632 9.73252 13.1673L10.3955 13.5316C10.993 13.8303 11.2713 14.2109 11.2468 14.6693C11.2345 15.3037 10.7147 15.8111 10.0804 15.807Z" fill="currentColor"/>
</g>
</svg>
