<svg viewBox="0 0 32 33" fill="none" xmlns="http://www.w3.org/2000/svg">
<g id="Esportes">
<path id="Vector" d="M16.0001 4.32645C13.5279 4.32645 11.1111 5.05955 9.05555 6.43305C6.99996 7.80655 5.39783 9.75876 4.45174 12.0428C3.50566 14.3269 3.25812 16.8402 3.74043 19.2649C4.22274 21.6896 5.41323 23.9169 7.16137 25.665C8.9095 27.4132 11.1368 28.6036 13.5615 29.086C15.9862 29.5683 18.4995 29.3207 20.7836 28.3746C23.0676 27.4286 25.0198 25.8264 26.3933 23.7708C27.7668 21.7152 28.4999 19.2985 28.4999 16.8263C28.4962 13.5123 27.178 10.3351 24.8346 7.99174C22.4913 5.64839 19.3141 4.33023 16.0001 4.32645ZM16.4465 7.92997L20.7911 6.1925C21.2857 6.41571 21.7625 6.67463 22.2197 6.96213L22.2304 6.96927C22.6804 7.25498 23.1107 7.56926 23.5161 7.9139L23.5518 7.94426C23.7339 8.09961 23.9125 8.26033 24.0839 8.4264L24.15 8.4889C24.3321 8.66746 24.5071 8.84782 24.6768 9.03532L24.7178 9.08353C24.9024 9.29005 25.0793 9.50329 25.2482 9.72281C25.3982 9.91923 25.5428 10.1157 25.6803 10.321L24.8143 14.0031L20.5536 15.4245L16.4465 12.1389V7.92997ZM6.75021 9.72638L6.84842 9.60138C6.98584 9.42774 7.12816 9.25803 7.2752 9.09246L7.32163 9.03889C7.48949 8.85139 7.66448 8.66925 7.84484 8.49247L7.90734 8.43175C8.07876 8.26747 8.25555 8.10854 8.4359 7.95319L8.47697 7.91747C8.88054 7.57819 9.30553 7.26391 9.75196 6.97999L9.76803 6.97106C10.2216 6.68178 10.6966 6.42464 11.1859 6.20142L15.5519 7.92997V12.1389L11.4448 15.4245L7.18413 14.0049L6.31807 10.3228C6.45557 10.1192 6.60021 9.92102 6.75021 9.72638ZM6.25022 23.2191C6.12747 23.032 6.01016 22.8415 5.89843 22.6476L5.87165 22.6012C5.76092 22.408 5.65611 22.2115 5.55737 22.0119L5.5538 22.0066C5.34453 21.5871 5.16086 21.1554 5.0038 20.7137V20.7102C4.92979 20.5003 4.86191 20.2883 4.80023 20.0745L4.77702 19.9941C4.71966 19.792 4.66786 19.5884 4.62166 19.3834L4.60916 19.3245C4.50705 18.8592 4.43369 18.3881 4.38952 17.9138L6.93235 14.8602L11.1644 16.2709L12.393 21.1852L10.3752 23.8691L6.25022 23.2191ZM18.7751 28.1547C18.5645 28.2061 18.3525 28.2513 18.1394 28.2904L18.0501 28.3083C17.8663 28.3407 17.6817 28.3681 17.4965 28.3904L17.3501 28.4083C17.1787 28.4297 17.0054 28.444 16.8322 28.4565L16.6715 28.469C16.2434 28.4961 15.8141 28.4979 15.3858 28.4744C15.3608 28.4744 15.3376 28.4708 15.3126 28.469C15.132 28.4589 14.9516 28.4452 14.7715 28.4279L14.7501 28.4244C14.3556 28.3815 13.9634 28.319 13.5751 28.2369L11.1109 24.378L13.0966 21.728H18.9036L20.9215 24.3941L18.7751 28.1547ZM27.3928 19.3263L27.3785 19.3852C27.3321 19.5905 27.2803 19.7959 27.2232 19.9977L27.2017 20.0763C27.1392 20.2905 27.0714 20.503 26.9964 20.712V20.7173C26.8399 21.1584 26.6569 21.5895 26.4482 22.0084L26.4446 22.0137C26.345 22.2132 26.2396 22.4097 26.1285 22.603L26.1018 22.6494C25.9913 22.8436 25.8746 23.0342 25.7518 23.2209L21.6411 23.8673L19.609 21.1852L20.8357 16.2727L25.0678 14.862L27.6125 17.9156C27.5683 18.3899 27.495 18.861 27.3928 19.3263Z" fill="currentColor"/>
</g>
</svg>
