<svg viewBox="0 0 32 33" fill="none" xmlns="http://www.w3.org/2000/svg">
<g id="live">
<path id="Vector" d="M19.726 18.7349L14.5415 22.5496C14.432 22.6305 14.3075 22.689 14.1752 22.7217C14.043 22.7544 13.9056 22.7607 13.7709 22.7402C13.6362 22.7197 13.5069 22.6728 13.3904 22.6022C13.2739 22.5315 13.1725 22.4386 13.092 22.3287C12.9953 22.1938 12.933 22.0374 12.9106 21.8729C12.8882 21.7084 12.8898 21.5411 12.8898 21.3849C12.8898 21.2091 12.8923 21.1467 12.8898 21.0223V14.801C12.8898 14.7128 12.8898 14.7052 12.8898 14.5333C12.8898 14.3302 12.8875 14.2548 12.9108 14.1056C12.9341 13.9564 12.9904 13.8142 13.0754 13.6894C13.4051 13.2218 14.0501 13.1056 14.5198 13.4323L19.7042 17.0489C19.8394 17.1432 19.9502 17.2684 20.0273 17.4141C20.1044 17.5598 20.1457 17.7217 20.1478 17.8866C20.1498 18.0514 20.1125 18.2143 20.039 18.3619C19.9654 18.5094 19.8578 18.6373 19.7249 18.7349M25.3428 8.06121H19.2252L20.5233 5.23052C20.7618 4.71104 20.5337 4.09513 20.0132 3.85561C19.763 3.74155 19.4778 3.73131 19.2201 3.82712C18.9624 3.92294 18.7532 4.117 18.6383 4.3668L16.943 8.06121H14.3L12.6057 4.3668C12.4906 4.11719 12.2813 3.92331 12.0237 3.82752C11.7661 3.73173 11.481 3.74183 11.2308 3.85561C10.9809 3.97072 10.7868 4.18013 10.691 4.43802C10.5952 4.6959 10.6055 4.98123 10.7196 5.23156L12.0178 8.06121H6.6602C6.11156 8.06313 5.58605 8.2825 5.19888 8.67123C4.81171 9.05996 4.59445 9.58633 4.59473 10.135V25.6882C4.59473 26.8319 5.5217 27.762 6.6602 27.762H25.3417C25.8901 27.7598 26.4152 27.5403 26.802 27.1515C27.1888 26.7628 27.4057 26.2366 27.4051 25.6882V10.135C27.4051 8.99233 26.4802 8.06121 25.3417 8.06121" fill="currentColor"/>
</g>
</svg>
