<svg viewBox="0 0 83 35" fill="none" xmlns="http://www.w3.org/2000/svg">
<rect width="83" height="35" rx="8" fill="url(#paint0_linear_4481_4188)"/>
<path d="M51 17.0367C51 11.4936 46.5228 7 41 7C35.4772 7 31 11.4936 31 17.0367C31 21.7436 34.2288 25.6932 38.5844 26.778V20.104H36.5224V17.0367H38.5844V15.7151C38.5844 12.299 40.1248 10.7156 43.4664 10.7156C44.1 10.7156 45.1932 10.8405 45.6404 10.9649V13.7451C45.4044 13.7202 44.9944 13.7078 44.4852 13.7078C42.8456 13.7078 42.212 14.3312 42.212 15.952V17.0367H45.4784L44.9172 20.104H42.212V27C47.1628 26.3998 51 22.1683 51 17.0367Z" fill="white"/>
<defs>
<linearGradient id="paint0_linear_4481_4188" x1="2" y1="31.9118" x2="83.4588" y2="5.53462" gradientUnits="userSpaceOnUse">
<stop stop-color="#7496DD"/>
<stop offset="1" stop-color="#4969AF"/>
</linearGradient>
</defs>
</svg>
