<svg width="50" height="50" viewBox="0 0 50 50" fill="none" xmlns="http://www.w3.org/2000/svg">
<rect width="50" height="50" rx="25" fill="white" fill-opacity="0.05"/>
<circle cx="25" cy="25" r="25" fill="currentColor" fill-opacity="0.05"/>
<path d="M15.9516 32.9999H19.2779V24.8138L14.4737 21.0925V31.5111C14.4737 32.2555 15.0278 32.9999 15.9516 32.9999Z" fill="#4285F4"/>
<path d="M30.7222 32.9999H34.0481C34.787 32.9999 35.526 32.4416 35.526 31.5115V21.0925L30.7217 24.8134V32.9999H30.7222Z" fill="#34A853"/>
<path d="M30.7222 18.4884V24.8139L35.5264 21.0931V19.2324C35.5264 18.1166 34.6017 17 33.3083 17C32.7542 17 32.3845 17.1861 32.0152 17.3722L30.7217 18.488L30.7222 18.4884Z" fill="#FBBC04"/>
<path d="M19.2761 24.814V18.4885L25.0041 22.7673L30.7317 18.4885V24.814L25.0041 29.0927L19.2761 24.814Z" fill="#EA4335"/>
<path d="M14.4737 19.2324V21.093L19.2779 24.8139V18.4884L17.9844 17.3722C17.0606 16.8139 15.5823 17 14.8434 17.9301C14.6581 18.3023 14.4737 18.6745 14.4737 19.2324Z" fill="#C5221F"/>
</svg>
