<svg viewBox="0 0 83 35" fill="none" xmlns="http://www.w3.org/2000/svg">
<rect width="83" height="35" rx="8" fill="url(#paint0_linear_4481_4183)"/>
<path d="M42.0006 7C39.2848 7 38.944 7.01188 37.8773 7.06042C36.8127 7.10917 36.086 7.27771 35.4502 7.525C34.7925 7.78042 34.2346 8.12208 33.6787 8.67813C33.1225 9.23396 32.7808 9.79187 32.5246 10.4494C32.2767 11.0854 32.1079 11.8123 32.06 12.8765C32.0125 13.9431 32 14.2842 32 17C32 19.7158 32.0121 20.0556 32.0604 21.1223C32.1094 22.1869 32.2779 22.9135 32.525 23.5494C32.7806 24.2071 33.1223 24.765 33.6783 25.3208C34.234 25.8771 34.7919 26.2196 35.4492 26.475C36.0854 26.7223 36.8123 26.8908 37.8767 26.9396C38.9433 26.9881 39.284 27 41.9996 27C44.7156 27 45.0554 26.9881 46.1221 26.9396C47.1867 26.8908 47.9142 26.7223 48.5504 26.475C49.2079 26.2196 49.765 25.8771 50.3206 25.3208C50.8769 24.765 51.2185 24.2071 51.4748 23.5496C51.7206 22.9135 51.8894 22.1867 51.9394 21.1225C51.9873 20.0558 51.9998 19.7158 51.9998 17C51.9998 14.2842 51.9873 13.9433 51.9394 12.8767C51.8894 11.8121 51.7206 11.0854 51.4748 10.4496C51.2185 9.79187 50.8769 9.23396 50.3206 8.67813C49.7644 8.12188 49.2081 7.78021 48.5498 7.525C47.9123 7.27771 47.1852 7.10917 46.1206 7.06042C45.054 7.01188 44.7144 7 41.9977 7H42.0006ZM41.1035 8.80208C41.3698 8.80167 41.6669 8.80208 42.0006 8.80208C44.6706 8.80208 44.9871 8.81167 46.0415 8.85958C47.0165 8.90417 47.5456 9.06708 47.8981 9.20396C48.3648 9.38521 48.6975 9.60188 49.0473 9.95188C49.3973 10.3019 49.614 10.6352 49.7956 11.1019C49.9325 11.454 50.0956 11.9831 50.14 12.9581C50.1879 14.0123 50.1983 14.329 50.1983 16.9977C50.1983 19.6665 50.1879 19.9831 50.14 21.0373C50.0954 22.0123 49.9325 22.5415 49.7956 22.8935C49.6144 23.3602 49.3973 23.6925 49.0473 24.0423C48.6973 24.3923 48.365 24.609 47.8981 24.7902C47.546 24.9277 47.0165 25.0902 46.0415 25.1348C44.9873 25.1827 44.6706 25.1931 42.0006 25.1931C39.3304 25.1931 39.014 25.1827 37.9598 25.1348C36.9848 25.0898 36.4556 24.9269 36.1029 24.79C35.6363 24.6087 35.3029 24.3921 34.9529 24.0421C34.6029 23.6921 34.3862 23.3596 34.2046 22.8927C34.0677 22.5406 33.9046 22.0115 33.8602 21.0365C33.8123 19.9823 33.8027 19.6656 33.8027 16.9952C33.8027 14.3248 33.8123 14.0098 33.8602 12.9556C33.9048 11.9806 34.0677 11.4515 34.2046 11.099C34.3858 10.6323 34.6029 10.299 34.9529 9.94896C35.3029 9.59896 35.6363 9.38229 36.1029 9.20062C36.4554 9.06312 36.9848 8.90063 37.9598 8.85583C38.8823 8.81417 39.2398 8.80167 41.1035 8.79958V8.80208ZM47.3385 10.4625C47.1012 10.4625 46.8692 10.5329 46.6718 10.6648C46.4745 10.7966 46.3207 10.9841 46.2298 11.2034C46.139 11.4227 46.1153 11.664 46.1616 11.8968C46.208 12.1295 46.3223 12.3434 46.4902 12.5112C46.658 12.679 46.8719 12.7932 47.1047 12.8395C47.3375 12.8857 47.5788 12.8619 47.798 12.771C48.0173 12.6801 48.2047 12.5263 48.3365 12.3289C48.4683 12.1315 48.5386 11.8994 48.5385 11.6621C48.5385 10.9996 48.001 10.4621 47.3385 10.4621V10.4625ZM42.0006 11.8646C39.1646 11.8646 36.8652 14.164 36.8652 17C36.8652 19.836 39.1646 22.1344 42.0006 22.1344C44.8367 22.1344 47.1354 19.836 47.1354 17C47.1354 14.164 44.8365 11.8646 42.0004 11.8646H42.0006ZM42.0006 13.6667C43.8415 13.6667 45.334 15.159 45.334 17C45.334 18.8408 43.8415 20.3333 42.0006 20.3333C40.1596 20.3333 38.6673 18.8408 38.6673 17C38.6673 15.159 40.1596 13.6667 42.0006 13.6667Z" fill="white"/>
<defs>
<linearGradient id="paint0_linear_4481_4183" x1="3.5" y1="35" x2="77.1387" y2="-1.71906" gradientUnits="userSpaceOnUse">
<stop stop-color="#FBBD2E"/>
<stop offset="0.374447" stop-color="#E72B62"/>
<stop offset="0.83" stop-color="#9F2DB9"/>
<stop offset="1" stop-color="#7433EE"/>
</linearGradient>
</defs>
</svg>
