<svg viewBox="0 0 40 40" fill="none" xmlns="http://www.w3.org/2000/svg">
<rect width="40" height="40" rx="20" fill="#06C755"/>
<path d="M9.72029 23.5516C8.20941 20.8848 8.3656 17.5933 10.0668 15.0429C10.6745 14.1285 11.5123 13.16 12.6597 12.3109C15.9342 9.88551 19.453 10.107 20.3618 10.1951C20.3845 10.1951 20.4072 10.1979 20.4299 10.2008C25.522 10.4138 29.694 13.0294 30.9323 16.7583C31.1481 17.4087 31.2617 18.0477 31.3014 18.6639C31.3952 20.1095 31.0799 21.5494 30.4267 22.8416C30.2563 23.1796 30.0575 23.5403 29.8218 23.9123C29.1572 24.9631 28.1547 26.2127 25.4937 28.1836C24.0879 29.2259 22.1339 30.5323 19.6262 31.8132C19.3791 31.9381 19.0838 31.762 19.0809 31.4837L19.0554 29.8422C19.0468 29.2487 18.6521 28.7289 18.0813 28.5614L14.0058 27.3685C13.9434 27.3515 13.8837 27.3288 13.8269 27.3032C13.0488 26.9482 11.1147 25.9287 9.7856 23.6624C9.76288 23.6255 9.74301 23.5885 9.72029 23.5516Z" fill="white"/>
<path d="M12.5919 17.0039C12.5919 17.0031 12.5926 17.0024 12.5933 17.0024H13.3871C13.4865 17.0024 13.5689 17.0877 13.5689 17.1927V21.0353C13.5689 21.1403 13.6513 21.2255 13.7507 21.2255H15.8977C15.9971 21.2255 16.0794 21.3107 16.0794 21.4158V22.0179C16.0794 22.123 15.9971 22.2082 15.8977 22.2082H12.5919C12.4925 22.2082 12.4102 22.123 12.4102 22.0179V17.1956C12.4102 17.091 12.4917 17.0061 12.5905 17.0053C12.5913 17.0053 12.5919 17.0046 12.5919 17.0039Z" fill="#21BA52"/>
<path d="M16.9103 17.0029H17.7055C17.8049 17.0029 17.8872 17.0881 17.8872 17.1932V22.0155C17.8872 22.1206 17.8049 22.2058 17.7055 22.2058H16.9103C16.8109 22.2058 16.7285 22.1206 16.7285 22.0155V17.1932C16.7285 17.0881 16.8109 17.0029 16.9103 17.0029Z" fill="#21BA52"/>
<path d="M23.3666 17.1932V22.0155C23.3666 22.1206 23.2843 22.2058 23.1849 22.2058H22.5004C22.4464 22.2058 22.3953 22.1803 22.3584 22.1377L19.916 19.0477V22.0155C19.916 22.1206 19.8336 22.2058 19.7342 22.2058H18.9532C18.8538 22.2058 18.7715 22.1206 18.7715 22.0155V17.1932C18.7715 17.0881 18.8538 17.0029 18.9532 17.0029H19.6434C19.6973 17.0029 19.7485 17.0285 19.7854 17.0711L22.2192 20.161V17.1932C22.2192 17.0881 22.3016 17.0029 22.401 17.0029H23.182C23.2814 17.0029 23.3638 17.0881 23.3638 17.1932H23.3666Z" fill="#21BA52"/>
<path d="M28.1506 21.4873C28.1515 21.4892 28.152 21.4912 28.152 21.4933V21.9531C28.152 22.0922 28.0441 22.203 27.9106 22.203H24.5168C24.3833 22.203 24.2754 22.0894 24.2754 21.9531V17.2529C24.2754 17.1137 24.3833 17.0029 24.5168 17.0029H27.8169C27.9503 17.0029 28.0583 17.1165 28.0583 17.2529V17.7158C28.0583 17.8549 27.9503 17.9657 27.8169 17.9657H25.9908C25.6786 17.9657 25.4256 18.2187 25.4256 18.5309C25.4256 18.843 25.6786 19.096 25.9908 19.096H27.5073C27.6408 19.096 27.7487 19.2096 27.7487 19.3459V19.7805C27.7487 19.9196 27.6408 20.0304 27.5073 20.0304H26.0277C25.6952 20.0304 25.4256 20.2999 25.4256 20.6325C25.4256 20.965 25.6952 21.2345 26.0277 21.2345H27.9078C28.0402 21.2345 28.1475 21.3464 28.1491 21.4813C28.1492 21.4834 28.1496 21.4854 28.1506 21.4873Z" fill="#21BA52"/>
</svg>
