<svg viewBox="0 0 83 35" fill="none" xmlns="http://www.w3.org/2000/svg">
<rect width="83" height="35" rx="8" fill="url(#paint0_linear_4481_4181)"/>
<path fill-rule="evenodd" clip-rule="evenodd" d="M32.4849 15.7489C38.2831 13.2087 42.1495 11.534 44.084 10.7249C49.6075 8.4147 50.7553 8.01339 51.5033 8.00014C51.6679 7.99723 52.0358 8.03823 52.2741 8.23267C52.4753 8.39685 52.5306 8.61863 52.5571 8.77429C52.5836 8.92995 52.6166 9.28455 52.5904 9.56163C52.2911 12.7241 50.9959 20.3986 50.337 23.9406C50.0582 25.4394 49.5092 25.9419 48.9777 25.9911C47.8227 26.098 46.9457 25.2235 45.827 24.4861C44.0764 23.3323 43.0875 22.614 41.3883 21.488C39.4246 20.1868 40.6976 19.4716 41.8167 18.3027C42.1096 17.9969 47.1986 13.3423 47.2971 12.92C47.3094 12.8672 47.3209 12.6704 47.2046 12.5664C47.0883 12.4625 46.9166 12.498 46.7928 12.5263C46.6172 12.5664 43.8207 14.425 38.4033 18.1022C37.6095 18.6503 36.8905 18.9174 36.2463 18.9034C35.5362 18.888 34.1701 18.4996 33.1546 18.1677C31.909 17.7606 30.919 17.5453 31.0052 16.8539C31.0501 16.4937 31.5434 16.1254 32.4849 15.7489Z" fill="white"/>
<defs>
<linearGradient id="paint0_linear_4481_4181" x1="2" y1="31.9118" x2="83.4588" y2="5.53462" gradientUnits="userSpaceOnUse">
<stop stop-color="#1B7DC2"/>
<stop offset="1" stop-color="#24A2CC"/>
</linearGradient>
</defs>
</svg>
